<svg xmlns="http://www.w3.org/2000/svg" width="420" height="220" viewBox="0 0 420 220">
  <defs>
    <clipPath id="clip-Custom_Size_1">
      <rect width="420" height="220" />
    </clipPath>
  </defs>
  <g
    id="Custom_Size_1"
    data-name="Custom Size – 1"
    clipPath="url(#clip-Custom_Size_1)"
  >
    <rect width="420" height="220" fill="#fcd38b" />
    <g
      id="Rectangle_2"
      data-name="Rectangle 2"
      transform="translate(8 8)"
      fill="#f8e3b8"
      stroke="#707070"
      strokeWidth="1"
    >
      <rect width="404" height="204" stroke="none" />
      <rect x="0.5" y="0.5" width="403" height="203" fill="none" />
    </g>
    <g
      id="Rectangle_1"
      data-name="Rectangle 1"
      transform="translate(10 10)"
      fill="#f8e3b8"
      stroke="#707070"
      strokeWidth="0.5"
    >
      <rect width="50" height="50" stroke="none" />
      <rect x="0.25" y="0.25" width="49.5" height="49.5" fill="none" />
    </g>
    <g
      id="Rectangle_1-2"
      data-name="Rectangle 1"
      transform="translate(60 10)"
      fill="#f8e3b8"
      stroke="#707070"
      strokeWidth="0.5"
    >
      <rect width="50" height="50" stroke="none" />
      <rect x="0.25" y="0.25" width="49.5" height="49.5" fill="none" />
    </g>
    <g
      id="Rectangle_1-3"
      data-name="Rectangle 1"
      transform="translate(110 10)"
      fill="#f8e3b8"
      stroke="#707070"
      strokeWidth="0.5"
    >
      <rect width="50" height="50" stroke="none" />
      <rect x="0.25" y="0.25" width="49.5" height="49.5" fill="none" />
    </g>
    <g
      id="Rectangle_1-4"
      data-name="Rectangle 1"
      transform="translate(160 10)"
      fill="#f8e3b8"
      stroke="#707070"
      strokeWidth="0.5"
    >
      <rect width="50" height="50" stroke="none" />
      <rect x="0.25" y="0.25" width="49.5" height="49.5" fill="none" />
    </g>
    <g
      id="Rectangle_1-5"
      data-name="Rectangle 1"
      transform="translate(210 10)"
      fill="#f8e3b8"
      stroke="#707070"
      strokeWidth="0.5"
    >
      <rect width="50" height="50" stroke="none" />
      <rect x="0.25" y="0.25" width="49.5" height="49.5" fill="none" />
    </g>
    <g
      id="Rectangle_1-6"
      data-name="Rectangle 1"
      transform="translate(260 10)"
      fill="#f8e3b8"
      stroke="#707070"
      strokeWidth="0.5"
    >
      <rect width="50" height="50" stroke="none" />
      <rect x="0.25" y="0.25" width="49.5" height="49.5" fill="none" />
    </g>
    <g
      id="Rectangle_1-7"
      data-name="Rectangle 1"
      transform="translate(310 10)"
      fill="#f8e3b8"
      stroke="#707070"
      strokeWidth="0.5"
    >
      <rect width="50" height="50" stroke="none" />
      <rect x="0.25" y="0.25" width="49.5" height="49.5" fill="none" />
    </g>
    <g
      id="Rectangle_1-8"
      data-name="Rectangle 1"
      transform="translate(360 10)"
      fill="#f8e3b8"
      stroke="#707070"
      strokeWidth="0.5"
    >
      <rect width="50" height="50" stroke="none" />
      <rect x="0.25" y="0.25" width="49.5" height="49.5" fill="none" />
    </g>
    <g
      id="Rectangle_1-9"
      data-name="Rectangle 1"
      transform="translate(10 60)"
      fill="#f8e3b8"
      stroke="#707070"
      strokeWidth="0.5"
    >
      <rect width="50" height="50" stroke="none" />
      <rect x="0.25" y="0.25" width="49.5" height="49.5" fill="none" />
    </g>
    <g
      id="Rectangle_1-10"
      data-name="Rectangle 1"
      transform="translate(60 60)"
      fill="#f8e3b8"
      stroke="#707070"
      strokeWidth="0.5"
    >
      <rect width="50" height="50" stroke="none" />
      <rect x="0.25" y="0.25" width="49.5" height="49.5" fill="none" />
    </g>
    <g
      id="Rectangle_1-11"
      data-name="Rectangle 1"
      transform="translate(110 60)"
      fill="#f8e3b8"
      stroke="#707070"
      strokeWidth="0.5"
    >
      <rect width="50" height="50" stroke="none" />
      <rect x="0.25" y="0.25" width="49.5" height="49.5" fill="none" />
    </g>
    <g
      id="Rectangle_1-12"
      data-name="Rectangle 1"
      transform="translate(160 60)"
      fill="#f8e3b8"
      stroke="#707070"
      strokeWidth="0.5"
    >
      <rect width="50" height="50" stroke="none" />
      <rect x="0.25" y="0.25" width="49.5" height="49.5" fill="none" />
    </g>
    <g
      id="Rectangle_1-13"
      data-name="Rectangle 1"
      transform="translate(210 60)"
      fill="#f8e3b8"
      stroke="#707070"
      strokeWidth="0.5"
    >
      <rect width="50" height="50" stroke="none" />
      <rect x="0.25" y="0.25" width="49.5" height="49.5" fill="none" />
    </g>
    <g
      id="Rectangle_1-14"
      data-name="Rectangle 1"
      transform="translate(260 60)"
      fill="#f8e3b8"
      stroke="#707070"
      strokeWidth="0.5"
    >
      <rect width="50" height="50" stroke="none" />
      <rect x="0.25" y="0.25" width="49.5" height="49.5" fill="none" />
    </g>
    <g
      id="Rectangle_1-15"
      data-name="Rectangle 1"
      transform="translate(310 60)"
      fill="#f8e3b8"
      stroke="#707070"
      strokeWidth="0.5"
    >
      <rect width="50" height="50" stroke="none" />
      <rect x="0.25" y="0.25" width="49.5" height="49.5" fill="none" />
    </g>
    <g
      id="Rectangle_1-16"
      data-name="Rectangle 1"
      transform="translate(360 60)"
      fill="#f8e3b8"
      stroke="#707070"
      strokeWidth="0.5"
    >
      <rect width="50" height="50" stroke="none" />
      <rect x="0.25" y="0.25" width="49.5" height="49.5" fill="none" />
    </g>
    <g
      id="Rectangle_1-17"
      data-name="Rectangle 1"
      transform="translate(10 110)"
      fill="#f8e3b8"
      stroke="#707070"
      strokeWidth="0.5"
    >
      <rect width="50" height="50" stroke="none" />
      <rect x="0.25" y="0.25" width="49.5" height="49.5" fill="none" />
    </g>
    <g
      id="Rectangle_1-18"
      data-name="Rectangle 1"
      transform="translate(60 110)"
      fill="#f8e3b8"
      stroke="#707070"
      strokeWidth="0.5"
    >
      <rect width="50" height="50" stroke="none" />
      <rect x="0.25" y="0.25" width="49.5" height="49.5" fill="none" />
    </g>
    <g
      id="Rectangle_1-19"
      data-name="Rectangle 1"
      transform="translate(110 110)"
      fill="#f8e3b8"
      stroke="#707070"
      strokeWidth="0.5"
    >
      <rect width="50" height="50" stroke="none" />
      <rect x="0.25" y="0.25" width="49.5" height="49.5" fill="none" />
    </g>
    <g
      id="Rectangle_1-20"
      data-name="Rectangle 1"
      transform="translate(160 110)"
      fill="#f8e3b8"
      stroke="#707070"
      strokeWidth="0.5"
    >
      <rect width="50" height="50" stroke="none" />
      <rect x="0.25" y="0.25" width="49.5" height="49.5" fill="none" />
    </g>
    <g
      id="Rectangle_1-21"
      data-name="Rectangle 1"
      transform="translate(210 110)"
      fill="#f8e3b8"
      stroke="#707070"
      strokeWidth="0.5"
    >
      <rect width="50" height="50" stroke="none" />
      <rect x="0.25" y="0.25" width="49.5" height="49.5" fill="none" />
    </g>
    <g
      id="Rectangle_1-22"
      data-name="Rectangle 1"
      transform="translate(260 110)"
      fill="#f8e3b8"
      stroke="#707070"
      strokeWidth="0.5"
    >
      <rect width="50" height="50" stroke="none" />
      <rect x="0.25" y="0.25" width="49.5" height="49.5" fill="none" />
    </g>
    <g
      id="Rectangle_1-23"
      data-name="Rectangle 1"
      transform="translate(310 110)"
      fill="#f8e3b8"
      stroke="#707070"
      strokeWidth="0.5"
    >
      <rect width="50" height="50" stroke="none" />
      <rect x="0.25" y="0.25" width="49.5" height="49.5" fill="none" />
    </g>
    <g
      id="Rectangle_1-24"
      data-name="Rectangle 1"
      transform="translate(360 110)"
      fill="#f8e3b8"
      stroke="#707070"
      strokeWidth="0.5"
    >
      <rect width="50" height="50" stroke="none" />
      <rect x="0.25" y="0.25" width="49.5" height="49.5" fill="none" />
    </g>
    <g
      id="Rectangle_1-25"
      data-name="Rectangle 1"
      transform="translate(10 160)"
      fill="#f8e3b8"
      stroke="#707070"
      strokeWidth="0.5"
    >
      <rect width="50" height="50" stroke="none" />
      <rect x="0.25" y="0.25" width="49.5" height="49.5" fill="none" />
    </g>
    <g
      id="Rectangle_1-26"
      data-name="Rectangle 1"
      transform="translate(60 160)"
      fill="#f8e3b8"
      stroke="#707070"
      strokeWidth="0.5"
    >
      <rect width="50" height="50" stroke="none" />
      <rect x="0.25" y="0.25" width="49.5" height="49.5" fill="none" />
    </g>
    <g
      id="Rectangle_1-27"
      data-name="Rectangle 1"
      transform="translate(110 160)"
      fill="#f8e3b8"
      stroke="#707070"
      strokeWidth="0.5"
    >
      <rect width="50" height="50" stroke="none" />
      <rect x="0.25" y="0.25" width="49.5" height="49.5" fill="none" />
    </g>
    <g
      id="Rectangle_1-28"
      data-name="Rectangle 1"
      transform="translate(160 160)"
      fill="#f8e3b8"
      stroke="#707070"
      strokeWidth="0.5"
    >
      <rect width="50" height="50" stroke="none" />
      <rect x="0.25" y="0.25" width="49.5" height="49.5" fill="none" />
    </g>
    <g
      id="Rectangle_1-29"
      data-name="Rectangle 1"
      transform="translate(210 160)"
      fill="#f8e3b8"
      stroke="#707070"
      strokeWidth="0.5"
    >
      <rect width="50" height="50" stroke="none" />
      <rect x="0.25" y="0.25" width="49.5" height="49.5" fill="none" />
    </g>
    <g
      id="Rectangle_1-30"
      data-name="Rectangle 1"
      transform="translate(260 160)"
      fill="#f8e3b8"
      stroke="#707070"
      strokeWidth="0.5"
    >
      <rect width="50" height="50" stroke="none" />
      <rect x="0.25" y="0.25" width="49.5" height="49.5" fill="none" />
    </g>
    <g
      id="Rectangle_1-31"
      data-name="Rectangle 1"
      transform="translate(310 160)"
      fill="#f8e3b8"
      stroke="#707070"
      strokeWidth="0.5"
    >
      <rect width="50" height="50" stroke="none" />
      <rect x="0.25" y="0.25" width="49.5" height="49.5" fill="none" />
    </g>
    <g
      id="Rectangle_1-32"
      data-name="Rectangle 1"
      transform="translate(360 160)"
      fill="#f8e3b8"
      stroke="#707070"
      strokeWidth="0.5"
    >
      <rect width="50" height="50" stroke="none" />
      <rect x="0.25" y="0.25" width="49.5" height="49.5" fill="none" />
    </g>
    <line
      id="Line_1"
      data-name="Line 1"
      x2="99"
      y2="99"
      transform="translate(160.5 110.5)"
      fill="none"
      stroke="#707070"
      strokeWidth="1"
    />
    <line
      id="Line_2"
      data-name="Line 2"
      y1="99"
      x2="99"
      transform="translate(160.5 110.5)"
      fill="none"
      stroke="#707070"
      strokeWidth="1"
    />
  </g>
</svg>
